<svg xmlns="http://www.w3.org/2000/svg" xmlns:xlink="http://www.w3.org/1999/xlink" aria-hidden="true" role="img" class="iconify iconify--logos" width="256" height="256" preserveAspectRatio="xMidYMid meet" viewBox="0 0 256 256"><path fill="#61DAFB" d="M255.422 128.214c0-2.23-1.615-4.036-3.59-4.036c-1.974 0-3.59 1.806-3.59 4.036c0 33.334-27.11 60.443-60.444 60.443c-33.334 0-60.444-27.11-60.444-60.443c0-2.23-1.615-4.036-3.59-4.036s-3.59 1.806-3.59 4.036c0 37.809 30.671 68.48 68.48 68.48s68.48-30.67 68.48-68.48Z" transform="translate(0 0) translate(0.289 0)"></path><path fill="#61DAFB" d="M127.711 0c-1.974 0-3.59 1.806-3.59 4.036v60.264c0 2.23 1.615 4.036 3.59 4.036c1.974 0 3.59-1.806 3.59-4.036V4.036c0-2.23-1.615-4.036-3.59-4.036Z" transform="translate(0 0) translate(0.289 0)"></path><path fill="#61DAFB" d="M127.711 187.921c-1.974 0-3.59 1.806-3.59 4.036v60.264c0 2.23 1.615 4.036 3.59 4.036c1.974 0 3.59-1.806 3.59-4.036v-60.264c0-2.23-1.615-4.036-3.59-4.036Z" transform="translate(0 0) translate(0.289 0)"></path><path fill="#61DAFB" d="M216.201 68.031a3.93 3.93 0 0 0-2.872-1.163l-52.093 30.075c-1.974 1.138-2.59 3.813-1.451 5.788c1.138 1.974 3.813 2.59 5.788 1.451l52.093-30.075a3.93 3.93 0 0 0-1.465-6.076Z" transform="translate(0 0) translate(0.289 0)"></path><path fill="#61DAFB" d="M39.221 187.961a3.93 3.93 0 0 0-2.872-1.163l-52.093 30.075c-1.974 1.138-2.59 3.813-1.451 5.788c1.138 1.974 3.813 2.59 5.788 1.451l52.093-30.075a3.93 3.93 0 0 0-1.465-6.076Z" transform="translate(0 0) translate(0.289 0) scale(-1 -1) translate(-256 -256)"></path><path fill="#61DAFB" d="M39.221 68.031a3.93 3.93 0 0 0 1.465-6.076L-11.407 31.88c-1.974-1.138-4.65-0.523-5.788 1.451c-1.138 1.974-0.523 4.65 1.451 5.788l52.093 30.075a3.93 3.93 0 0 0 2.872-1.163Z" transform="translate(0 0) translate(0.289 0)"></path><path fill="#61DAFB" d="M216.201 187.961a3.93 3.93 0 0 0 1.465-6.076l-52.093-30.075c-1.974-1.138-4.65-0.523-5.788 1.451c-1.138 1.974-0.523 4.65 1.451 5.788l52.093 30.075a3.93 3.93 0 0 0 2.872-1.163Z" transform="translate(0 0) translate(0.289 0) scale(-1 -1) translate(-256 -256)"></path><ellipse fill="#61DAFB" cx="128" cy="128.214" rx="19.148" ry="19.148" transform="translate(0 0) translate(0.289 0)"></ellipse></svg>